<?xml version="1.0" encoding="UTF-8" standalone="no"?>
<!-- Created with Inkscape (http://www.inkscape.org/) -->

<svg
   xmlns:dc="http://purl.org/dc/elements/1.1/"
   xmlns:cc="http://creativecommons.org/ns#"
   xmlns:rdf="http://www.w3.org/1999/02/22-rdf-syntax-ns#"
   xmlns:svg="http://www.w3.org/2000/svg"
   xmlns="http://www.w3.org/2000/svg"
   xmlns:sodipodi="http://sodipodi.sourceforge.net/DTD/sodipodi-0.dtd"
   xmlns:inkscape="http://www.inkscape.org/namespaces/inkscape"
   width="512"
   height="512"
   id="svg2"
   version="1.1"
   inkscape:version="0.48.5 r10040"
   sodipodi:docname="53047faac8318c2d65000099.svg">
  <defs
     id="defs4">
    <clipPath
       clipPathUnits="userSpaceOnUse"
       id="clipPath3016">
      <rect
         style="fill:#babab6;fill-opacity:0.75100403;stroke:none"
         id="rect3018"
         width="564.28571"
         height="564.28571"
         x="408.60669"
         y="-41.030346"
         ry="0"
         inkscape:transform-center-y="-399.01024"
         transform="matrix(0.70710678,0.70710678,-0.70710678,0.70710678,0,0)" />
    </clipPath>
    <clipPath
       clipPathUnits="userSpaceOnUse"
       id="clipPath3024">
      <rect
         ry="0"
         y="784.65265"
         x="-310.39819"
         height="187.14285"
         width="182.3214"
         id="rect3026"
         style="fill:#babab6;fill-opacity:0.75100403;stroke:none"
         inkscape:transform-center-x="1.7046797"
         inkscape:transform-center-y="-130.62536"
         transform="matrix(0.70710678,-0.70710678,0.70710678,0.70710678,0,0)" />
    </clipPath>
  </defs>
  <sodipodi:namedview
     id="base"
     pagecolor="#ffffff"
     bordercolor="#666666"
     borderopacity="1.0"
     inkscape:pageopacity="0.0"
     inkscape:pageshadow="2"
     inkscape:zoom="1.4"
     inkscape:cx="226.5571"
     inkscape:cy="281.93039"
     inkscape:document-units="px"
     inkscape:current-layer="g3814"
     showgrid="false"
     inkscape:object-paths="false"
     inkscape:object-nodes="true"
     inkscape:window-width="1920"
     inkscape:window-height="1031"
     inkscape:window-x="0"
     inkscape:window-y="0"
     inkscape:window-maximized="1" />
  <metadata
     id="metadata7">
    <rdf:RDF>
      <cc:Work
         rdf:about="">
        <dc:format>image/svg+xml</dc:format>
        <dc:type
           rdf:resource="http://purl.org/dc/dcmitype/StillImage" />
        <dc:title />
      </cc:Work>
    </rdf:RDF>
  </metadata>
  <g
     inkscape:label="Calque 1"
     inkscape:groupmode="layer"
     id="layer1"
     transform="translate(0,-540.36218)">
    <rect
       ry="0"
       y="906.64783"
       x="627.83472"
       height="0"
       width="0"
       id="rect3006"
       style="fill:#babab6;fill-opacity:0.75100403;stroke:none"
       inkscape:transform-center-x="-79.896986"
       inkscape:transform-center-y="-79.897033" />
    <g
       id="g3814"
       transform="matrix(1.1618013,0,0,1.1618013,-176.07076,-57.016943)">
      <g
         id="g3404">
        <rect
           style="fill:#3279ef;fill-opacity:1;stroke:none"
           id="rect2998"
           width="385.71429"
           height="344.28571"
           x="178.57143"
           y="562.36218"
           ry="31.255449"
           clip-path="url(#clipPath3016)" />
        <g
           id="text3036"
           style="font-size:43.52685165px;font-style:normal;font-weight:normal;line-height:125%;letter-spacing:0px;word-spacing:0px;fill:#ffffff;fill-opacity:1;stroke:none;font-family:Helvetica CE 55 Roman;-inkscape-font-specification:Helvetica CE 55 Roman"
           transform="scale(0.97806292,1.0224291)">
          <path
             id="path4283"
             style="font-size:239.39770508px;fill:#ffffff;-inkscape-font-specification:'Helvetica CE 55 Roman,'"
             d="m 316.87052,741.0786 c 3.83031,-0.47872 7.90007,-0.71811 12.20929,-0.71819 4.94748,8e-5 9.65563,0.71827 14.12446,2.15458 4.46868,1.27686 8.29903,3.35164 11.49109,6.22434 3.19188,2.71324 5.74545,6.1446 7.66073,10.2941 1.91508,3.99002 2.87267,8.61837 2.87277,13.88506 -10e-5,5.1072 -1.03749,9.73555 -3.11217,13.88507 -1.91528,3.98999 -4.54865,7.42136 -7.90012,10.2941 -3.35166,2.7132 -7.26182,4.86777 -11.73049,6.46374 -4.46883,1.4364 -9.17698,2.15459 -14.12447,2.15458 -11.65074,1e-5 -20.50844,-3.43135 -26.57314,-10.2941 -6.06477,-7.0223 -9.25674,-16.03961 -9.57591,-27.05194 l -20.34881,0 c -0.1596,8.77796 1.03739,16.59827 3.59097,23.46097 2.71316,6.86276 6.54352,12.6881 11.49109,17.47603 4.94753,4.62837 10.93246,8.21933 17.95483,10.7729 7.02228,2.39398 14.8426,3.59096 23.46097,3.59097 7.97986,-10e-6 15.48098,-1.11719 22.50339,-3.35157 7.18184,-2.23438 13.40617,-5.50614 18.67302,-9.81531 5.26664,-4.30914 9.41619,-9.65568 12.44868,-16.03964 3.19185,-6.54351 4.78783,-14.04463 4.78795,-22.50339 -1.2e-4,-10.21424 -2.55369,-19.07195 -7.66072,-26.57314 -4.94767,-7.50105 -12.60838,-12.3688 -22.98218,-14.60326 l 0,-0.4788 c 6.54344,-3.03228 12.04958,-7.50103 16.51844,-13.40627 4.62824,-6.06463 6.94242,-12.84756 6.94253,-20.3488 -1.1e-4,-7.8202 -1.3567,-14.60313 -4.06976,-20.34881 -2.55368,-5.74539 -6.14464,-10.45354 -10.7729,-14.12446 -4.62845,-3.67061 -10.13459,-6.38378 -16.51844,-8.13953 -6.22441,-1.91501 -13.00734,-2.8726 -20.3488,-2.87277 -8.45878,1.7e-4 -15.9599,1.35676 -22.50339,4.06976 -6.38397,2.71334 -11.73051,6.4639 -16.03964,11.25169 -4.30918,4.78811 -7.66075,10.53365 -10.05471,17.23664 -2.23439,6.70327 -3.51117,14.12459 -3.83036,22.26399 l 20.34881,0 c -4e-5,-4.94744 0.63836,-9.65559 1.91518,-14.12447 1.27675,-4.46862 3.19193,-8.37878 5.74554,-11.73049 2.71313,-3.35142 6.0647,-5.98479 10.05471,-7.90012 3.9899,-2.07463 8.77785,-3.11202 14.36386,-3.11217 8.61824,1.5e-4 15.80017,2.31433 21.54579,6.94253 5.74546,4.6285 8.61823,11.41143 8.61832,20.34881 -9e-5,4.62847 -0.87789,8.69823 -2.63338,12.20928 -1.75567,3.35168 -4.14964,6.22445 -7.18193,8.61832 -2.87285,2.23448 -6.30421,3.99006 -10.2941,5.26675 -3.83043,1.11728 -7.90019,1.67588 -12.20928,1.67578 -1.43645,10e-5 -2.87283,10e-5 -4.30916,0 -1.43644,10e-5 -2.95263,-0.0797 -4.54856,-0.2394 l 0,17.23664" />
        </g>
        <g
           id="text3040"
           style="font-size:45.34014511px;font-style:normal;font-weight:normal;line-height:125%;letter-spacing:0px;word-spacing:0px;fill:#ffffff;fill-opacity:1;stroke:none;font-family:Helvetica CE 55 Roman;-inkscape-font-specification:Helvetica CE 55 Roman"
           transform="scale(1.0188082,0.98153899)">
          <path
             id="path4286"
             style="font-size:249.37081909px;fill:#ffffff"
             d="m 461.55049,678.18791 -16.20911,0 c -1.1638,6.65006 -3.32501,12.13621 -6.48364,16.45847 -3.15876,4.32259 -7.06556,7.73065 -11.72043,10.22421 -4.48872,2.49385 -9.55926,4.23945 -15.21162,5.23679 -5.65244,0.83138 -11.47108,1.24699 -17.45595,1.24685 l 0,16.95722 45.88423,0 0,126.68037 21.19652,0 0,-176.80391" />
        </g>
        <rect
           style="fill:#a0c3ff;fill-opacity:1;stroke:none"
           id="rect3020"
           width="96.607132"
           height="95.714279"
           x="467.67856"
           y="810.93359"
           ry="0"
           clip-path="url(#clipPath3024)"
           transform="matrix(0.99168207,0,0,0.99168207,5.6311903,7.5935052)" />
        <path
           sodipodi:type="arc"
           style="fill:#ffffff;fill-opacity:1;stroke:none"
           id="path3032"
           sodipodi:cx="260.42996"
           sodipodi:cy="618.31226"
           sodipodi:rx="16.099306"
           sodipodi:ry="16.099306"
           d="m 276.52927,618.31226 c 0,8.8914 -7.20791,16.0993 -16.09931,16.0993 -8.8914,0 -16.0993,-7.2079 -16.0993,-16.0993 0,-8.89141 7.2079,-16.09931 16.0993,-16.09931 8.8914,0 16.09931,7.2079 16.09931,16.09931 z"
           transform="translate(-0.37880721,0.63134534)" />
        <path
           transform="translate(223.62119,0.63134534)"
           d="m 276.52927,618.31226 c 0,8.8914 -7.20791,16.0993 -16.09931,16.0993 -8.8914,0 -16.0993,-7.2079 -16.0993,-16.0993 0,-8.89141 7.2079,-16.09931 16.0993,-16.09931 8.8914,0 16.09931,7.2079 16.09931,16.09931 z"
           sodipodi:ry="16.099306"
           sodipodi:rx="16.099306"
           sodipodi:cy="618.31226"
           sodipodi:cx="260.42996"
           id="path3034"
           style="fill:#ffffff;fill-opacity:1;stroke:none"
           sodipodi:type="arc" />
        <rect
           transform="matrix(0,-0.99168207,-0.99168207,0,1273.6079,1370.4884)"
           clip-path="url(#clipPath3024)"
           ry="0"
           y="810.93359"
           x="467.67856"
           height="95.714279"
           width="96.607132"
           id="rect3812"
           style="fill:#000000;fill-opacity:0.41767069;stroke:none"
           inkscape:transform-center-x="-47.459019"
           inkscape:transform-center-y="-47.901749" />
      </g>
    </g>
  </g>
</svg>
